<svg id="Capa_1" enable-background="new 0 0 512 512" height="512" viewBox="0 0 512 512" width="512" xmlns="http://www.w3.org/2000/svg"><g><path d="m435.98 422-179.98-.08-182.26-.09c-8.19-1.25-13.82-8.9-12.57-17.09 6.19-40.54 13.07-74.99 21.03-104.74l13.8-15-4.88-15c27.65-83.66 76.01-150 164.88-150 88.9 0 137.25 66.38 164.88 150l-12.88 19 21.8 11c7.96 29.75 14.84 64.2 21.03 104.74 1.38 9.05-5.61 17.26-14.85 17.26z" fill="#65d6a9"/><path d="m435.98 422-179.98-.08v-301.92c88.9 0 137.25 66.38 164.88 150l-12.88 19 21.8 11c7.96 29.75 14.84 64.2 21.03 104.74 1.38 9.05-5.61 17.26-14.85 17.26z" fill="#26bfa6"/><g><path d="m429.8 300h-22.79c-7.45 5.35-17.54 30-38.51 30-19.69 0-29.4-21.36-37.5-29.14-8.1 7.78-17.82 29.14-37.5 29.14-19.69 0-29.4-21.36-37.5-29.14-8.1 7.78-17.82 29.14-37.5 29.14-19.69 0-29.4-21.36-37.5-29.14-8.1 7.78-17.82 29.14-37.5 29.14-20.89 0-31.2-24.75-38.51-30h-22.79c2.83-10.57 5.8-20.55 8.92-30h14.88c19.69 0 29.4 21.36 37.5 29.14 8.1-7.78 17.82-29.14 37.5-29.14 19.69 0 29.4 21.36 37.5 29.14 8.1-7.78 17.82-29.14 37.5-29.14 19.69 0 29.4 21.36 37.5 29.14 8.1-7.78 17.82-29.14 37.5-29.14 19.69 0 29.4 21.36 37.5 29.14 8.1-7.78 17.82-29.14 37.5-29.14h14.88c3.12 9.45 6.09 19.43 8.92 30z" fill="#fff2fb"/></g><path d="m429.8 300h-22.79c-7.45 5.35-17.54 30-38.51 30-19.69 0-29.4-21.36-37.5-29.14-8.1 7.78-17.82 29.14-37.5 29.14-19.69 0-29.4-21.36-37.5-29.14v-30.86c19.69 0 29.4 21.36 37.5 29.14 8.1-7.78 17.82-29.14 37.5-29.14 19.69 0 29.4 21.36 37.5 29.14 8.1-7.78 17.82-29.14 37.5-29.14h14.88c3.12 9.45 6.09 19.43 8.92 30z" fill="#ffdfea"/><g><path d="m256 0c-41.35 0-75 33.65-75 75s33.65 75 75 75 75-33.65 75-75-33.65-75-75-75z" fill="#fff2fb"/></g><path d="m331 75c0 41.35-33.65 75-75 75v-150c41.35 0 75 33.65 75 75z" fill="#ffdfea"/><g><path d="m436 407h-360c-24.81 0-45 20.19-45 45v15c0 24.81 20.19 45 45 45h360c24.81 0 45-20.19 45-45v-15c0-24.81-20.19-45-45-45z" fill="#26bfa6"/></g><path d="m481 452v15c0 24.81-20.19 45-45 45h-180v-105h180c24.81 0 45 20.19 45 45z" fill="#149084"/></g></svg>